<svg xmlns="http://www.w3.org/2000/svg" version="1.1" xmlns:xlink="http://www.w3.org/1999/xlink" xmlns:svgjs="http://svgjs.dev/svgjs" width="1000" height="159" viewBox="0 0 1000 159"><g transform="matrix(1,0,0,1,-0.6060548833356734,0.10132444164761978)"><svg viewBox="0 0 396 63" data-background-color="#ffffff" preserveAspectRatio="xMidYMid meet" height="159" width="1000" xmlns="http://www.w3.org/2000/svg" xmlns:xlink="http://www.w3.org/1999/xlink"><g id="tight-bounds" transform="matrix(1,0,0,1,0.23999773380091938,-0.04014742027547413)"><svg viewBox="0 0 395.52 63.080294840550955" height="63.080294840550955" width="395.52"><g><svg viewBox="0 0 500.40772212787385 79.80852207806123" height="63.080294840550955" width="395.52"><g><rect width="5.146924959455772" height="79.80852207806123" x="86.26717162010459" y="0" fill="#001f3f" opacity="1" stroke-width="0" stroke="transparent" fill-opacity="1" class="rect-o-0" data-fill-palette-color="primary" rx="1%" id="o-0" data-palette-color="#001f3f"></rect></g><g transform="matrix(1,0,0,1,104.8877221278739,0.19852866188571738)"><svg viewBox="0 0 395.52 79.4114647542898" height="79.4114647542898" width="395.52"><g id="textblocktransform"><svg viewBox="0 0 395.52 79.4114647542898" height="79.4114647542898" width="395.52" id="textblock"><g><svg viewBox="0 0 395.52 57.07325415676959" height="57.07325415676959" width="395.52"><g transform="matrix(1,0,0,1,0,0)"><svg width="395.52" viewBox="1.5 -36 252.58999633789062 36.45000076293945" height="57.07325415676959" data-palette-color="#001f3f"><path d="M27.05-0.38Q25.05 0.1 22.98 0.28 20.9 0.45 18.93 0.45 16.95 0.45 15.88 0.35 14.8 0.25 13.05-0.15 11.3-0.55 9.85-1.25 8.4-1.95 6.78-3.3 5.15-4.65 4.05-6.5L4.05-6.5Q1.5-10.8 1.5-17.6L1.5-17.6Q1.5-22.15 2.93-25.65 4.35-29.15 6.38-31.05 8.4-32.95 11-34.1L11-34.1Q15.2-36 19.45-36L19.45-36Q25.55-36 28.2-35L28.2-35Q29.4-34.55 30.35-33.6 31.3-32.65 31.3-30.85 31.3-29.05 30.43-26.3 29.55-23.55 27.9-23.55L27.9-23.55Q27.4-23.55 24.2-24.35 21-25.15 19.85-25.15L19.85-25.15Q18.1-25.15 16.88-23.2 15.65-21.25 15.65-17.65 15.65-14.05 16.73-12.05 17.8-10.05 19.55-10.05L19.55-10.05Q20.8-10.05 24.08-11.08 27.35-12.1 27.9-12.1L27.9-12.1Q29.45-12.1 30.33-9.25 31.2-6.4 31.2-4.65 31.2-2.9 30.13-1.88 29.05-0.85 27.05-0.38ZM51.7 0.45L51.7 0.45Q47.55 0.45 44.57-0.33 41.6-1.1 39.1-3.1L39.1-3.1Q34.05-7.05 34.05-18.25L34.05-18.25Q34.05-22.95 35.42-26.45 36.8-29.95 39.25-32L39.25-32Q44.05-36 51.7-36L51.7-36Q55.65-36 58.57-35.3 61.5-34.6 64.1-32.75L64.1-32.75Q69.35-28.95 69.35-18.25L69.35-18.25Q69.35-8.65 64.6-4.1 59.85 0.45 51.7 0.45ZM50.05-8.13Q50.65-7.4 51.7-7.4 52.75-7.4 53.35-8.13 53.95-8.85 54.35-11.23 54.75-13.6 54.75-17.85 54.75-22.1 54.35-24.4 53.95-26.7 53.35-27.4 52.75-28.1 51.7-28.1 50.65-28.1 50.05-27.4 49.45-26.7 49.05-24.4 48.65-22.1 48.65-17.85 48.65-13.6 49.05-11.23 49.45-8.85 50.05-8.13ZM88.55 0L88.55 0 76.75 0Q74.3 0 73.45-0.35 72.6-0.7 72.6-1.5L72.6-1.5 72.6-33.05Q72.6-34.35 73.7-34.93 74.8-35.5 77.5-35.5L77.5-35.5 88.75-35.5Q98.35-35.5 102-31.73 105.65-27.95 105.65-18 105.65-8.05 101.85-4.03 98.05 0 88.55 0ZM88.15-28.05L88.15-28.05Q86.95-28.05 86.55-27.85L86.55-27.85 86.55-7.65 88.45-7.45Q89.95-7.45 90.72-9.85 91.5-12.25 91.5-18.15 91.5-24.05 90.7-26.05 89.9-28.05 88.15-28.05ZM134.49 0L134.49 0 113.29 0Q110.84 0 109.99-0.35 109.14-0.7 109.14-1.45L109.14-1.45 109.14-33.1Q109.14-34.4 110.32-34.95 111.49-35.5 114.54-35.5L114.54-35.5 134.64-35.5Q135.69-35.5 135.69-32.02 135.69-28.55 135.24-26.73 134.79-24.9 134.04-24.9L134.04-24.9Q130.79-24.9 123.09-25.55L123.09-25.55 123.09-22.2Q130.49-22.5 132.74-22.5L132.74-22.5Q134.09-22.5 134.09-19.35 134.09-16.2 133.57-14.58 133.04-12.95 132.14-12.95L132.14-12.95 123.09-13.15 123.09-9.95Q131.79-10.6 135.09-10.6L135.09-10.6Q136.14-10.6 136.14-7.1 136.14-3.6 135.69-1.8 135.24 0 134.49 0ZM147.34 0L147.34 0Q146.09 0 143.72 0 141.34 0 140.49-0.35 139.64-0.7 139.64-1.45L139.64-1.45 139.64-33Q139.64-34.15 142.72-34.83 145.79-35.5 149.29-35.5 152.79-35.5 154.29-34.6 155.79-33.7 156.04-32.7L156.04-32.7 159.44-19.5 159.89-19.5 163.09-32.1Q163.44-33.45 166.37-34.48 169.29-35.5 172.79-35.5 176.29-35.5 177.97-34.95 179.64-34.4 179.64-33.55L179.64-33.55 179.64-1.45Q179.64-0.8 176.79-0.4 173.94 0 169.84 0 165.74 0 165.74-1.45L165.74-1.45Q165.74-5.4 166.59-15.5L166.59-15.5 166.14-15.5 163.54-2.45Q163.39-1.7 162.32-1.35 161.24-1 159.09-1 156.94-1 156.47-1.3 155.99-1.6 155.84-2.45L155.84-2.45 153.14-15.5 152.69-15.5Q153.59-5.2 153.59-1.45L153.59-1.45Q153.59-0.15 147.34 0ZM197.44-2.55Q197.34-1.1 195.91-0.55 194.49 0 190.79 0 187.09 0 184.61-0.68 182.14-1.35 182.14-2.4L182.14-2.4Q182.14-3.6 186.59-17.73 191.04-31.85 191.69-34L191.69-34Q191.94-34.65 195.71-35.08 199.49-35.5 203.81-35.5 208.14-35.5 208.59-34L208.59-34Q218.04-2.6 218.04-2.1 218.04-1.6 217.44-1.1L217.44-1.1Q216.04 0 211.89 0L211.89 0Q203.04 0 202.84-2.1L202.84-2.1 202.49-5.35 197.69-5.35 197.44-2.55ZM198.74-14.85L201.44-14.85 200.69-23.85 199.59-23.85 198.74-14.85ZM228.99 0L228.99 0Q225.34 0 222.19-0.63 219.04-1.25 219.04-2.45L219.04-2.45Q219.04-3.15 221.11-7.03 223.19-10.9 227.39-18L227.39-18Q219.89-32.1 219.89-32.8L219.89-32.8Q219.89-33.9 223.06-34.7 226.24-35.5 228.86-35.5 231.49-35.5 233.16-34.7 234.84-33.9 234.99-33.1L234.99-33.1 236.94-24.25 237.19-24.25 238.59-33Q238.64-33.35 239.79-33.95 240.94-34.55 242.86-35.02 244.79-35.5 247.31-35.5 249.84-35.5 251.54-34.9 253.24-34.3 253.24-32.65L253.24-32.65Q253.24-31.8 251.44-27.7 249.64-23.6 245.99-16.3L245.99-16.3Q254.09-3.15 254.09-2.45L254.09-2.45Q254.09 0 248.14 0L248.14 0Q239.29 0 238.64-2.4L238.64-2.4 236.69-9.35 236.39-9.35 234.79-2.4Q234.24 0 228.99 0Z" opacity="1" transform="matrix(1,0,0,1,0,0)" fill="#001f3f" class="undefined-text-0" data-fill-palette-color="primary" id="text-0"></path></svg></g></svg></g><g transform="matrix(1,0,0,1,0,70.54687970508313)"><svg viewBox="0 0 143.53420799999998 8.864585049206667" height="8.864585049206667" width="143.53420799999998"><g transform="matrix(1,0,0,1,0,0)"><svg width="143.53420799999998" viewBox="2.490000009536743 -29.540000915527344 486.1800231933594 30.030000686645508" height="8.864585049206667" data-palette-color="#001f3f"><path d="M11.08 0.44L11.08 0.44Q8.98 0.44 6.64-0.1 4.3-0.63 2.78-1.51L2.78-1.51 2.49-8.15 4.93-8.35 6.4-3.76Q7.57-3.03 8.96-2.64 10.35-2.25 11.82-2.25L11.82-2.25Q14.16-2.25 15.5-3.32 16.85-4.39 16.85-6.25L16.85-6.25Q16.85-8.01 15.82-9.11 14.79-10.21 13.18-11.01 11.57-11.82 9.74-12.6 7.91-13.38 6.3-14.43 4.69-15.48 3.66-17.02 2.64-18.55 2.64-20.9L2.64-20.9Q2.64-23.34 4-25.22 5.37-27.1 7.84-28.15 10.3-29.2 13.53-29.2L13.53-29.2Q14.75-29.2 15.97-29.05 17.19-28.91 18.29-28.64 19.38-28.37 20.26-27.98L20.26-27.98 20.7-21.53 18.26-21.34 16.85-25.68Q15.28-26.61 12.99-26.61L12.99-26.61Q10.64-26.61 9.23-25.46 7.81-24.32 7.81-22.41L7.81-22.41Q7.81-20.7 8.84-19.56 9.86-18.41 11.5-17.55 13.13-16.7 14.99-15.92 16.85-15.14 18.48-14.11 20.12-13.09 21.14-11.6 22.17-10.11 22.17-7.86L22.17-7.86Q22.17-5.47 20.75-3.59 19.34-1.71 16.85-0.63 14.36 0.44 11.08 0.44ZM37.25 0L26.02 0 25.88-2.05 28.9-2.73Q29-2.98 29.05-3.91 29.1-4.83 29.12-6.4 29.15-7.96 29.15-10.06L29.15-10.06 29.15-18.55Q29.15-20.7 29.12-22.29 29.1-23.88 29.05-24.8 29-25.73 28.9-25.93L28.9-25.93 25.88-26.61 26.02-28.66 37.25-28.66 37.4-26.61 34.37-25.93Q34.27-25.73 34.2-24.85 34.13-23.97 34.1-22.41 34.08-20.85 34.08-18.55L34.08-18.55 34.08-10.06Q34.08-7.86 34.1-6.3 34.13-4.74 34.2-3.86 34.27-2.98 34.37-2.73L34.37-2.73 37.4-2.05 37.25 0ZM41.89-26.61L42.04-28.66 51.02-28.66 61.27-5.81 60.25-5.81 70.01-28.66 78.66-28.66 78.8-26.61 75.78-25.98Q75.73-25.34 75.75-23.61 75.78-21.88 75.83-19.48L75.83-19.48 76.07-10.69Q76.17-8.4 76.22-6.76 76.26-5.13 76.34-4.15 76.41-3.17 76.41-2.73L76.41-2.73 79.49-2.05 79.34 0 68.01 0 67.91-2.05 70.89-2.73Q70.94-3.17 70.97-3.98 70.99-4.79 70.99-6.27 70.99-7.76 70.94-10.16L70.94-10.16 70.8-27.25 72.41-27.25 60.64 0.15 58.54 0.15 46.14-27.29 47.94-27.29 47.99-10.64Q47.99-6.64 48.02-4.91 48.04-3.17 48.09-2.73L48.09-2.73 51.46-2.05 51.31 0 41.35 0 41.21-2.05 44.58-2.73Q44.62-3.13 44.65-4.08 44.67-5.03 44.72-6.52 44.77-8.01 44.77-9.96L44.77-9.96 44.92-19.43Q44.97-21.88 44.94-23.51 44.92-25.15 44.92-25.93L44.92-25.93 41.89-26.61ZM95.94 0L83.88 0 83.78-2.05 86.61-2.73Q86.71-2.93 86.76-3.71 86.81-4.49 86.83-5.98 86.86-7.47 86.86-9.81L86.86-9.81 86.91-19.04Q86.91-21.29 86.86-22.75 86.81-24.22 86.78-25 86.76-25.78 86.66-25.93L86.66-25.93 83.64-26.61 83.73-28.66 94.77-28.66Q99.99-28.66 102.8-26.51 105.61-24.37 105.61-20.36L105.61-20.36Q105.61-17.68 104.19-15.63 102.78-13.57 100.31-12.43 97.84-11.28 94.72-11.28L94.72-11.28Q93.69-11.28 92.79-11.38 91.89-11.47 91.11-11.62L91.11-11.62 91.11-14.5Q91.98-14.21 92.84-14.06 93.69-13.92 94.62-13.92L94.62-13.92Q97.31-13.92 98.82-15.36 100.33-16.8 100.33-19.73L100.33-19.73Q100.33-23.14 98.58-24.73 96.82-26.32 94.08-26.32L94.08-26.32 91.89-26.32Q91.89-25.98 91.86-24.98 91.84-23.97 91.81-22.46 91.79-20.95 91.79-19.04L91.79-19.04 91.84-9.81Q91.84-7.47 91.89-5.98 91.94-4.49 91.98-3.76 92.03-3.03 92.08-2.83L92.08-2.83 96.09-2.15 95.94 0ZM132.75-7.62L130.65 0.24Q129.78 0.2 128.73 0.15 127.68 0.1 126.67 0.05 125.67 0 124.94 0L124.94 0 109.61 0 109.46-2.05 112.54-2.73Q112.59-2.98 112.64-3.93 112.69-4.88 112.71-6.45 112.73-8.01 112.73-10.06L112.73-10.06 112.73-18.55Q112.73-20.65 112.73-22.22 112.73-23.78 112.69-24.73 112.64-25.68 112.54-25.88L112.54-25.88 109.46-26.61 109.61-28.66 121.91-28.66 122.06-26.51 118.01-25.88Q117.96-25.73 117.89-24.85 117.81-23.97 117.76-22.39 117.71-20.8 117.71-18.55L117.71-18.55 117.71-10.06Q117.71-7.42 117.76-5.59 117.81-3.76 117.86-3.17L117.86-3.17Q118.59-3.08 119.37-3.03 120.16-2.98 121.23-2.98L121.23-2.98 124.26-2.98Q125.38-2.98 126.19-3.05 126.99-3.13 127.68-3.22L127.68-3.22 130.31-8.2 132.75-7.62ZM159.12-7.13L157.07 0.29Q155.7 0.1 154.33 0.05 152.97 0 151.79 0L151.79 0 135 0 134.85-2.05 137.88-2.73Q137.98-2.98 138.05-3.91 138.12-4.83 138.15-6.4 138.17-7.96 138.17-10.06L138.17-10.06 138.17-18.55Q138.17-20.7 138.15-22.29 138.12-23.88 138.05-24.8 137.98-25.73 137.88-25.93L137.88-25.93 134.85-26.61 135-28.66 150.52-28.66Q151.26-28.66 152.23-28.69 153.21-28.71 154.24-28.76 155.26-28.81 156.19-28.91L156.19-28.91 157.26-22.17 154.87-21.83 153.16-25.98Q152.67-26.07 152.21-26.12 151.75-26.17 151.16-26.17L151.16-26.17 146.23-26.17Q145.3-26.17 144.54-26.15 143.79-26.12 143.15-26.03L143.15-26.03Q143.15-25.73 143.13-24.88 143.1-24.02 143.08-22.83 143.05-21.63 143.05-20.31L143.05-20.31 143.05-8.11Q143.05-6.93 143.08-5.86 143.1-4.79 143.13-4 143.15-3.22 143.15-2.88L143.15-2.88Q143.93-2.78 144.74-2.73 145.54-2.69 146.67-2.69L146.67-2.69 150.72-2.69Q151.84-2.69 152.5-2.71 153.16-2.73 153.53-2.78 153.89-2.83 154.19-2.88L154.19-2.88 156.77-7.57 159.12-7.13ZM153.65-9.91L151.4-9.91 150.87-13.23Q150.57-13.28 149.94-13.33 149.3-13.38 148.43-13.38L148.43-13.38 145.1-13.38Q144.37-13.38 143.62-13.35 142.86-13.33 142.22-13.28L142.22-13.28 142.22-16.16Q142.86-16.11 143.62-16.11 144.37-16.11 145.1-16.11L145.1-16.11 148.43-16.11Q149.3-16.11 149.94-16.14 150.57-16.16 150.87-16.16L150.87-16.16 151.4-19.53 153.65-19.53 153.65-9.91ZM184.16 0L172.3 0 172.15-2.05 174.98-2.73Q175.03-2.93 175.08-3.81 175.13-4.69 175.15-6.23 175.18-7.76 175.18-9.86L175.18-9.86 175.23-19.19Q175.23-21.19 175.2-22.63 175.18-24.07 175.13-24.9 175.08-25.73 175.03-25.88L175.03-25.88 172-26.61 172.1-28.66 187.29-28.66Q188.12-28.66 189.07-28.69 190.02-28.71 191.05-28.76 192.07-28.81 193-28.91L193-28.91 194.07-22.17 191.68-21.83 189.92-25.98Q189.53-26.07 189.05-26.12 188.56-26.17 188.02-26.17L188.02-26.17 183.14-26.17Q182.36-26.17 181.5-26.12 180.65-26.07 180.11-25.98L180.11-25.98Q180.11-25.78 180.09-25.29 180.06-24.8 180.06-24.07 180.06-23.34 180.06-22.29 180.06-21.24 180.06-19.87L180.06-19.87 180.11-9.08Q180.11-7.23 180.16-5.86 180.21-4.49 180.26-3.71 180.3-2.93 180.35-2.73L180.35-2.73 184.31-2.15 184.16 0ZM190.51-9.47L188.17-9.47 187.63-12.99Q187.19-13.09 186.55-13.13 185.92-13.18 185.09-13.18L185.09-13.18 181.43-13.18Q180.79-13.18 180.16-13.16 179.52-13.13 178.79-13.09L178.79-13.09 178.79-15.97Q179.38-15.92 180.06-15.89 180.74-15.87 181.43-15.87L181.43-15.87 185.09-15.87Q186.07-15.87 186.7-15.92 187.34-15.97 187.63-16.02L187.63-16.02 188.17-19.34 190.51-19.34 190.51-9.47ZM202.27 0L193.68 0 193.53-2.05 196.02-2.73 205.99-27.64 209.26-29.54 220.1-2.73 222.54-2.05 222.39 0 211.5 0 211.41-2.05 214.43-2.73 211.6-9.72 211.06-11.28 205.89-23.97 207.11-24.27 202.37-11.33 201.84-9.86 199.35-2.73 202.37-2.05 202.27 0ZM200.81-8.79L200.81-8.79 200.81-11.62Q201.74-11.57 203.2-11.5 204.67-11.43 206.91-11.43L206.91-11.43Q209.11-11.43 210.62-11.5 212.14-11.57 213.02-11.62L213.02-11.62 213.02-8.84Q211.6-8.84 210.06-8.89 208.52-8.94 206.91-8.94L206.91-8.94Q205.3-8.94 203.81-8.89 202.32-8.84 200.81-8.79ZM233.23 0.44L233.23 0.44Q231.13 0.44 228.79-0.1 226.44-0.63 224.93-1.51L224.93-1.51 224.64-8.15 227.08-8.35 228.54-3.76Q229.71-3.03 231.11-2.64 232.5-2.25 233.96-2.25L233.96-2.25Q236.31-2.25 237.65-3.32 238.99-4.39 238.99-6.25L238.99-6.25Q238.99-8.01 237.97-9.11 236.94-10.21 235.33-11.01 233.72-11.82 231.89-12.6 230.06-13.38 228.44-14.43 226.83-15.48 225.81-17.02 224.78-18.55 224.78-20.9L224.78-20.9Q224.78-23.34 226.15-25.22 227.52-27.1 229.98-28.15 232.45-29.2 235.67-29.2L235.67-29.2Q236.89-29.2 238.11-29.05 239.33-28.91 240.43-28.64 241.53-28.37 242.41-27.98L242.41-27.98 242.85-21.53 240.41-21.34 238.99-25.68Q237.43-26.61 235.13-26.61L235.13-26.61Q232.79-26.61 231.37-25.46 229.96-24.32 229.96-22.41L229.96-22.41Q229.96-20.7 230.98-19.56 232.01-18.41 233.64-17.55 235.28-16.7 237.14-15.92 238.99-15.14 240.63-14.11 242.26-13.09 243.29-11.6 244.31-10.11 244.31-7.86L244.31-7.86Q244.31-5.47 242.9-3.59 241.48-1.71 238.99-0.63 236.5 0.44 233.23 0.44ZM271.75-28.91L271.75-28.91 272.88-20.75 270.39-20.51 268.43-26.03Q267.94-26.12 267.43-26.15 266.92-26.17 266.48-26.17L266.48-26.17 264.72-26.17Q264.28-26.17 263.52-26.17 262.77-26.17 262.23-26.07L262.23-26.07Q262.23-25.73 262.21-24.29 262.18-22.85 262.16-20.87 262.13-18.9 262.13-16.99L262.13-16.99 262.13-11.08Q262.13-8.11 262.18-5.86 262.23-3.61 262.28-2.73L262.28-2.73 266.43-2.15 266.33 0 253 0 252.86-2.15 257.01-2.73Q257.06-3.61 257.1-5.86 257.15-8.11 257.15-11.08L257.15-11.08 257.15-16.99Q257.15-18.9 257.13-20.87 257.1-22.85 257.1-24.29 257.1-25.73 257.06-26.07L257.06-26.07Q256.57-26.17 255.81-26.17 255.05-26.17 254.56-26.17L254.56-26.17 252.76-26.17Q252.27-26.17 251.78-26.15 251.29-26.12 250.81-26.03L250.81-26.03 248.85-20.41 246.41-20.7 247.44-28.91Q247.97-28.86 248.66-28.81 249.34-28.76 250.1-28.74 250.85-28.71 251.56-28.69 252.27-28.66 252.86-28.66L252.86-28.66 266.33-28.66Q266.92-28.66 267.63-28.69 268.33-28.71 269.07-28.74 269.8-28.76 270.48-28.81 271.17-28.86 271.75-28.91ZM296.26 0L285.42 0 285.27-2.05 288.35-2.83Q288.35-3.13 288.37-3.88 288.4-4.64 288.4-5.66 288.4-6.69 288.42-7.84 288.45-8.98 288.45-10.06L288.45-10.06 288.45-18.55Q288.45-20.75 288.42-22.31 288.4-23.88 288.32-24.8 288.25-25.73 288.15-25.93L288.15-25.93 285.13-26.61 285.27-28.66 296.6-28.66Q301.53-28.66 304.05-26.88 306.56-25.1 306.56-21.48L306.56-21.48Q306.56-19.09 305.17-17.21 303.78-15.33 301.36-14.28 298.94-13.23 295.82-13.23L295.82-13.23 292.74-13.23 292.74-15.63 295.28-15.63Q298.11-15.63 299.73-17.14 301.34-18.65 301.34-21.24L301.34-21.24Q301.34-23.73 299.97-25.02 298.6-26.32 295.97-26.32L295.97-26.32 293.43-26.32Q293.38-26.17 293.35-25.78 293.33-25.39 293.33-24.58 293.33-23.78 293.33-22.49 293.33-21.19 293.33-19.19L293.33-19.19 293.33-10.06Q293.33-8.2 293.35-6.74 293.38-5.27 293.45-4.27 293.52-3.27 293.57-2.83L293.57-2.83 296.41-2.05 296.26 0ZM309.35 0.49L309.35 0.49Q307 0.49 305.19-0.34 303.39-1.17 301.78-3.03 300.17-4.88 298.51-8.01L298.51-8.01 295.38-14.01 299.58-14.99 305-7.08Q306.27-5.27 307.34-4.17 308.42-3.08 309.49-2.49 310.57-1.9 311.79-1.61L311.79-1.61 311.74 0.29Q311.15 0.44 310.54 0.46 309.93 0.49 309.35 0.49ZM337.86-7.13L335.81 0.29Q334.44 0.1 333.07 0.05 331.71 0 330.53 0L330.53 0 313.74 0 313.59-2.05 316.62-2.73Q316.72-2.98 316.79-3.91 316.86-4.83 316.89-6.4 316.91-7.96 316.91-10.06L316.91-10.06 316.91-18.55Q316.91-20.7 316.89-22.29 316.86-23.88 316.79-24.8 316.72-25.73 316.62-25.93L316.62-25.93 313.59-26.61 313.74-28.66 329.26-28.66Q330-28.66 330.97-28.69 331.95-28.71 332.98-28.76 334-28.81 334.93-28.91L334.93-28.91 336-22.17 333.61-21.83 331.9-25.98Q331.41-26.07 330.95-26.12 330.49-26.17 329.9-26.17L329.9-26.17 324.97-26.17Q324.04-26.17 323.28-26.15 322.53-26.12 321.89-26.03L321.89-26.03Q321.89-25.73 321.87-24.88 321.84-24.02 321.82-22.83 321.79-21.63 321.79-20.31L321.79-20.31 321.79-8.11Q321.79-6.93 321.82-5.86 321.84-4.79 321.87-4 321.89-3.22 321.89-2.88L321.89-2.88Q322.67-2.78 323.48-2.73 324.28-2.69 325.41-2.69L325.41-2.69 329.46-2.69Q330.58-2.69 331.24-2.71 331.9-2.73 332.27-2.78 332.63-2.83 332.93-2.88L332.93-2.88 335.51-7.57 337.86-7.13ZM332.39-9.91L330.14-9.91 329.61-13.23Q329.31-13.28 328.68-13.33 328.04-13.38 327.16-13.38L327.16-13.38 323.84-13.38Q323.11-13.38 322.36-13.35 321.6-13.33 320.96-13.28L320.96-13.28 320.96-16.16Q321.6-16.11 322.36-16.11 323.11-16.11 323.84-16.11L323.84-16.11 327.16-16.11Q328.04-16.11 328.68-16.14 329.31-16.16 329.61-16.16L329.61-16.16 330.14-19.53 332.39-19.53 332.39-9.91ZM364.52-7.62L362.42 0.24Q361.54 0.2 360.49 0.15 359.44 0.1 358.44 0.05 357.44 0 356.7 0L356.7 0 341.37 0 341.22-2.05 344.3-2.73Q344.35-2.98 344.4-3.93 344.45-4.88 344.47-6.45 344.5-8.01 344.5-10.06L344.5-10.06 344.5-18.55Q344.5-20.65 344.5-22.22 344.5-23.78 344.45-24.73 344.4-25.68 344.3-25.88L344.3-25.88 341.22-26.61 341.37-28.66 353.68-28.66 353.82-26.51 349.77-25.88Q349.72-25.73 349.65-24.85 349.57-23.97 349.53-22.39 349.48-20.8 349.48-18.55L349.48-18.55 349.48-10.06Q349.48-7.42 349.53-5.59 349.57-3.76 349.62-3.17L349.62-3.17Q350.36-3.08 351.14-3.03 351.92-2.98 352.99-2.98L352.99-2.98 356.02-2.98Q357.14-2.98 357.95-3.05 358.75-3.13 359.44-3.22L359.44-3.22 362.07-8.2 364.52-7.62ZM378.04 0L366.81 0 366.66-2.05 369.69-2.73Q369.79-2.98 369.84-3.91 369.88-4.83 369.91-6.4 369.93-7.96 369.93-10.06L369.93-10.06 369.93-18.55Q369.93-20.7 369.91-22.29 369.88-23.88 369.84-24.8 369.79-25.73 369.69-25.93L369.69-25.93 366.66-26.61 366.81-28.66 378.04-28.66 378.19-26.61 375.16-25.93Q375.06-25.73 374.99-24.85 374.91-23.97 374.89-22.41 374.86-20.85 374.86-18.55L374.86-18.55 374.86-10.06Q374.86-7.86 374.89-6.3 374.91-4.74 374.99-3.86 375.06-2.98 375.16-2.73L375.16-2.73 378.19-2.05 378.04 0ZM388.88 0L380.28 0 380.14-2.05 382.63-2.73 392.59-27.64 395.86-29.54 406.7-2.73 409.14-2.05 408.99 0 398.1 0 398.01-2.05 401.03-2.73 398.2-9.72 397.67-11.28 392.49-23.97 393.71-24.27 388.97-11.33 388.44-9.86 385.95-2.73 388.97-2.05 388.88 0ZM387.41-8.79L387.41-8.79 387.41-11.62Q388.34-11.57 389.8-11.5 391.27-11.43 393.51-11.43L393.51-11.43Q395.71-11.43 397.23-11.5 398.74-11.57 399.62-11.62L399.62-11.62 399.62-8.84Q398.2-8.84 396.66-8.89 395.13-8.94 393.51-8.94L393.51-8.94Q391.9-8.94 390.41-8.89 388.92-8.84 387.41-8.79ZM410.94-2.05L414.02-2.73Q414.12-3.13 414.22-5.13 414.31-7.13 414.31-10.06L414.31-10.06 414.31-18.55Q414.31-21.73 414.22-23.73 414.12-25.73 414.02-26.03L414.02-26.03 410.94-26.61 411.09-28.66 423.44-28.66Q428.33-28.66 430.82-26.9 433.31-25.15 433.31-21.78L433.31-21.78Q433.31-19.09 431.13-17.26 428.96-15.43 425.45-15.14L425.45-15.14 425.2-15.53Q429.79-15.38 432.28-13.5 434.77-11.62 434.77-8.3L434.77-8.3Q434.77-4.44 431.48-2.22 428.18 0 422.42 0L422.42 0 411.09 0 410.94-2.05ZM419.2-20.12L419.2-8.64Q419.2-6.54 419.24-4.91 419.29-3.27 419.34-2.83L419.34-2.83Q419.93-2.69 420.95-2.56 421.98-2.44 422.66-2.44L422.66-2.44Q426.03-2.44 427.77-3.78 429.5-5.13 429.5-7.71L429.5-7.71Q429.5-10.6 427.64-11.99 425.79-13.38 422.08-13.38L422.08-13.38Q420.61-13.38 419.93-13.38 419.24-13.38 418.61-13.28L418.61-13.28 418.61-16.06Q419.44-16.02 420.17-15.97 420.9-15.92 421.83-15.92L421.83-15.92Q424.81-15.92 426.42-17.31 428.03-18.7 428.03-21.24L428.03-21.24Q428.03-23.68 426.54-25 425.06-26.32 422.08-26.32L422.08-26.32 419.29-26.32Q419.24-25.93 419.22-24.15 419.2-22.36 419.2-20.12L419.2-20.12ZM462.31-7.62L460.21 0.24Q459.33 0.2 458.28 0.15 457.23 0.1 456.23 0.05 455.23 0 454.5 0L454.5 0 439.16 0 439.02-2.05 442.09-2.73Q442.14-2.98 442.19-3.93 442.24-4.88 442.26-6.45 442.29-8.01 442.29-10.06L442.29-10.06 442.29-18.55Q442.29-20.65 442.29-22.22 442.29-23.78 442.24-24.73 442.19-25.68 442.09-25.88L442.09-25.88 439.02-26.61 439.16-28.66 451.47-28.66 451.62-26.51 447.56-25.88Q447.51-25.73 447.44-24.85 447.37-23.97 447.32-22.39 447.27-20.8 447.27-18.55L447.27-18.55 447.27-10.06Q447.27-7.42 447.32-5.59 447.37-3.76 447.42-3.17L447.42-3.17Q448.15-3.08 448.93-3.03 449.71-2.98 450.79-2.98L450.79-2.98 453.81-2.98Q454.94-2.98 455.74-3.05 456.55-3.13 457.23-3.22L457.23-3.22 459.87-8.2 462.31-7.62ZM488.67-7.13L486.62 0.29Q485.26 0.1 483.89 0.05 482.52 0 481.35 0L481.35 0 464.55 0 464.41-2.05 467.43-2.73Q467.53-2.98 467.6-3.91 467.68-4.83 467.7-6.4 467.73-7.96 467.73-10.06L467.73-10.06 467.73-18.55Q467.73-20.7 467.7-22.29 467.68-23.88 467.6-24.8 467.53-25.73 467.43-25.93L467.43-25.93 464.41-26.61 464.55-28.66 480.08-28.66Q480.81-28.66 481.79-28.69 482.77-28.71 483.79-28.76 484.82-28.81 485.74-28.91L485.74-28.91 486.82-22.17 484.43-21.83 482.72-25.98Q482.23-26.07 481.76-26.12 481.3-26.17 480.71-26.17L480.71-26.17 475.78-26.17Q474.85-26.17 474.1-26.15 473.34-26.12 472.71-26.03L472.71-26.03Q472.71-25.73 472.68-24.88 472.66-24.02 472.63-22.83 472.61-21.63 472.61-20.31L472.61-20.31 472.61-8.11Q472.61-6.93 472.63-5.86 472.66-4.79 472.68-4 472.71-3.22 472.71-2.88L472.71-2.88Q473.49-2.78 474.29-2.73 475.1-2.69 476.22-2.69L476.22-2.69 480.27-2.69Q481.4-2.69 482.06-2.71 482.72-2.73 483.08-2.78 483.45-2.83 483.74-2.88L483.74-2.88 486.33-7.57 488.67-7.13ZM483.2-9.91L480.96-9.91 480.42-13.23Q480.13-13.28 479.49-13.33 478.86-13.38 477.98-13.38L477.98-13.38 474.66-13.38Q473.93-13.38 473.17-13.35 472.41-13.33 471.78-13.28L471.78-13.28 471.78-16.16Q472.41-16.11 473.17-16.11 473.93-16.11 474.66-16.11L474.66-16.11 477.98-16.11Q478.86-16.11 479.49-16.14 480.13-16.16 480.42-16.16L480.42-16.16 480.96-19.53 483.2-19.53 483.2-9.91Z" opacity="1" transform="matrix(1,0,0,1,0,0)" fill="#001f3f" class="undefined-text-1" data-fill-palette-color="secondary" id="text-1"></path></svg></g></svg></g></svg></g></svg></g><g transform="matrix(1,0,0,1,0,0.19852866188571738)"><svg viewBox="0 0 72.79354607179106 79.4114647542898" height="79.4114647542898" width="72.79354607179106"><g><svg xmlns="http://www.w3.org/2000/svg" xmlns:xlink="http://www.w3.org/1999/xlink" version="1.1" x="0" y="0" viewBox="1 0 21.999910354614258 24" style="enable-background:new 0 0 24 24;" xml:space="preserve" height="79.4114647542898" width="72.79354607179106" class="icon-icon-0" data-fill-palette-color="accent" id="icon-0"><g fill="#001f3f" data-fill-palette-color="accent"><path d="M18.5 20c-0.276 0-0.5 0.224-0.5 0.5V23H2V7h5.5C7.776 7 8 6.776 8 6.5V1h10v9.5c0 0.276 0.224 0.5 0.5 0.5s0.5-0.224 0.5-0.5v-10C19 0.224 18.776 0 18.5 0h-11C7.433 0 7.367 0.014 7.306 0.039c-0.019 0.008-0.033 0.023-0.05 0.034-0.038 0.022-0.078 0.042-0.11 0.073l-6 6C1.123 6.169 1.11 6.2 1.092 6.227c-0.018 0.027-0.041 0.05-0.053 0.08C1.014 6.368 1 6.433 1 6.5v17C1 23.776 1.224 24 1.5 24h17c0.276 0 0.5-0.224 0.5-0.5v-3C19 20.224 18.776 20 18.5 20zM2.707 6L7 1.707V6H2.707z" fill="#001f3f" data-fill-palette-color="accent"></path><path d="M10.5 19c0.276 0 0.5-0.224 0.5-0.5v-6c0-0.221-0.144-0.415-0.355-0.479-0.211-0.065-0.439 0.017-0.561 0.201L8.5 14.598l-1.584-2.376c-0.123-0.183-0.351-0.265-0.561-0.201C6.144 12.085 6 12.28 6 12.5v6C6 18.776 6.224 19 6.5 19S7 18.776 7 18.5v-4.349l1.084 1.626c0.186 0.278 0.646 0.278 0.832 0L10 14.151V18.5C10 18.776 10.224 19 10.5 19z" fill="#001f3f" data-fill-palette-color="accent"></path><path d="M21.1 15.501l1.816-2.724c0.153-0.23 0.091-0.54-0.139-0.693s-0.54-0.09-0.693 0.139L20.5 14.6l-1.585-2.377c-0.153-0.23-0.463-0.292-0.693-0.139-0.23 0.153-0.292 0.463-0.139 0.693l1.816 2.724-1.815 2.722c-0.153 0.23-0.091 0.54 0.139 0.693C18.309 18.973 18.405 19 18.5 19c0.161 0 0.32-0.078 0.416-0.223l1.583-2.375 1.583 2.375C22.18 18.922 22.338 19 22.5 19c0.096 0 0.192-0.027 0.276-0.084 0.23-0.153 0.292-0.463 0.139-0.693L21.1 15.501z" fill="#001f3f" data-fill-palette-color="accent"></path><path d="M14.026 12.342l-2 6c-0.087 0.262 0.054 0.545 0.316 0.632 0.263 0.088 0.545-0.054 0.632-0.316L13.527 17h1.946l0.553 1.658C16.096 18.868 16.291 19 16.5 19c0.052 0 0.105-0.008 0.158-0.026 0.262-0.087 0.403-0.37 0.316-0.632l-2-6C14.839 11.934 14.162 11.934 14.026 12.342zM13.86 16l0.64-1.919L15.14 16H13.86z" fill="#001f3f" data-fill-palette-color="accent"></path></g></svg></g></svg></g></svg></g><defs></defs></svg><rect width="395.52" height="63.080294840550955" fill="none" stroke="none" visibility="hidden"></rect></g></svg></g></svg>